
        <svg xmlns="http://www.w3.org/2000/svg" xmlns:xlink="http://www.w3.org/1999/xlink" version="1.1" width="110" 
        height="40" viewBox="0 -40.55890239065923 3162.235609562637 950.0606897939772">
			
			<g transform="scale(8.111780478131845) translate(10, 10)">
				<defs id="SvgjsDefs1956"></defs><g id="SvgjsG1957" featureKey="symbolFeature-0" transform="matrix(-1.2412522686182,0,0,1.2412522686182,121.6463673314728,-21.00066431020717)" fill="#b83b5e"><g xmlns="http://www.w3.org/2000/svg"><path fill="#b83b5e" d="M74.977,47.217c-0.466-0.317-1.115-0.353-1.527-0.151l-22.138,9.79L28.144,46.423   c-0.495-0.213-1.093-0.15-1.471,0.113c-0.444,0.265-0.727,0.74-0.773,1.262l-2.646,27.009c-0.072,0.63,0.216,1.246,0.725,1.582   c0.546,0.363,1.274,0.344,1.786-0.028c4.828-3.426,10.998-7.122,12.547-7.122c1.254,0,6.346,4.013,10.905,8.599   c0.299,0.294,0.7,0.462,1.119,0.462c0.376,0,0.717-0.129,1.014-0.367c3.795-3.188,10.195-7.669,12.568-7.669   c2.795,0,8.424,4.438,10.194,6.009c0.289,0.243,0.66,0.384,1.032,0.384c0.275,0,0.537-0.079,0.752-0.196   c0.538-0.293,0.879-0.896,0.859-1.547l-1.066-26.386C75.666,47.982,75.4,47.503,74.977,47.217z"></path><path fill="#b83b5e" d="M93.711,28.89L51.362,12.985c-0.354-0.121-0.71-0.133-1.094,0.008L6.31,28.89   c-0.639,0.236-1.067,0.818-1.089,1.5c-0.027,0.668,0.343,1.29,0.962,1.589l9.297,4.605C13.919,39.065,12.445,43,12.786,50h-0.211   C11.167,50,10,50.589,10,52.081v4.367c0,1.292,0.85,2.365,1.978,2.65L8.003,86.87l1.757-1.128c0.216-0.142,0.531-0.313,0.824-0.466   c0.061,0.678,0.171,1.327,0.827,1.566c0.196,0.074,0.39,0.113,0.594,0.113c0.789,0,1.308-0.537,1.724-0.967   c0.162-0.162,0.386-0.393,0.54-0.479c0.113,0.118,0.278,0.306,0.386,0.434c0.466,0.545,0.991,1.164,1.769,1.164l0.366-0.051   c0.984-0.266,1.382-1.159,1.629-1.833c0.312,0.087,0.752,0.259,1.081,0.423l1.641,0.807L17.02,59.075   c1.077-0.312,1.98-1.377,1.98-2.627v-4.367C19,50.589,17.65,50,16.248,50h-0.879l3.517-11.848l14.28,6.426l17.138,6.485   c0.376,0.132,0.75,0.094,1.11-0.042l19.576-8.155L93.881,31.96c0.587-0.298,0.938-0.928,0.896-1.571   C94.749,29.713,94.331,29.128,93.711,28.89z"></path></g></g><g id="SvgjsG1958" featureKey="nameFeature-0" transform="matrix(1.6310734158773998,0,0,1.6310734158773998,128.26240631408203,-11.591165102881732)" fill="#b83b5e"><path d="M10.904 40.4028 c-5.316 0 -9.2256 -3.048 -9.2256 -6.6192 c0 -1.8592 1.2372 -2.8152 2.5116 -2.8152 c1.0924 0 2.2288 0.7184 2.2288 2.1488 c0 1.4428 -1.4112 1.9972 -1.4112 2.9972 c0 1.782 2.974 3.0552 5.338 3.0552 c3.244 0 6.382 -1.5736 6.382 -5.102 c0 -6.2716 -14.403 -3.6536 -14.403 -13.229 c0 -5.0924 4.3436 -7.6012 9.9036 -7.6012 c4.7364 0 8.9656 2.6496 8.9656 6.1048 c0 1.946 -1.2372 2.9308 -2.4828 2.9308 c-1.1216 0 -2.258 -0.7476 -2.258 -2.178 c0 -1.5584 1.382 -1.8812 1.382 -2.8812 c0 -1.6952 -2.974 -2.7436 -5.3092 -2.7436 c-3.04 0 -5.9296 1.1848 -5.9296 4.6496 c0 5.866 15.193 3.7708 15.193 13.345 c0 4.0208 -3.8304 7.938 -10.886 7.938 z M44.763 32.3008 l0.005586 -0.0003125 c0.32281 0 0.5764 0.25398 0.5764 0.6056 l0 7.094 l-20.214 0 c-0.3516 0 -0.6052 -0.25359 -0.6052 -0.6052 c0 -0.32281 0.25359 -0.5764 0.6052 -0.5764 l0.72558 0 c0.7344 0 1.2688 -0.5332 1.2688 -1.1324 l-0.005586 -21.719 c0 -0.6052 -0.5284 -1.1444 -1.2684 -1.1444 l-0.72558 0 c-0.3516 0 -0.6056 -0.25398 -0.6056 -0.5768 c0 -0.3516 0.25398 -0.6052 0.6056 -0.6052 l20.164 0 l0 7.094 c0 0.3516 -0.25359 0.6056 -0.6052 0.6056 c-0.32281 0 -0.5764 -0.25398 -0.5764 -0.6056 l0 -0.66762 c0 -2.76 -1.64 -5.244 -4.92 -5.244 l-5.174 0 c-0.7344 0 -1.2688 0.5244 -1.2688 1.1324 l0 9.7088 l1.4152 0 c3.0124 0 4.0772 -1.0732 4.0772 -3.5712 l0 -0.17922 c0 -0.32281 0.28281 -0.60564 0.60564 -0.60564 s0.60564 0.28281 0.60564 0.60564 l0 8.7408 c0 0.32281 -0.28281 0.60564 -0.60564 0.60564 s-0.60564 -0.25398 -0.60564 -0.69276 l0 -0.19039 c0 -2.342 -1.0068 -3.4732 -4.0772 -3.4732 l-1.4152 0 l0 10.77 c0 0.6108 0.5284 1.144 1.2684 1.144 l5.2236 0 c3.28 0 4.92 -2.484 4.92 -5.244 l0 -0.66762 c0 -0.3516 0.25359 -0.6056 0.6052 -0.6056 z M74.691 38.1392 l0.0032031 -0.00085936 c0.29359 0 0.4604 0.2248 0.4604 0.4896 c0 0.8676 -1.7312 1.7596 -3.804 1.7596 c-10.111 0 -2.0044 -12.537 -12.194 -12.537 l-1.5308 0 l0 9.8228 c0 0.6052 0.5284 1.1444 1.2684 1.1444 l0.72558 0 c0.3516 0 0.6056 0.25359 0.6056 0.5764 c0 0.3516 -0.25398 0.6052 -0.6056 0.6052 l-9.6136 0 c-0.3516 0 -0.6052 -0.25359 -0.6052 -0.6052 c0 -0.32281 0.25359 -0.5764 0.6052 -0.5764 l0.72558 0 c0.7344 0 1.2688 -0.5244 1.2688 -1.1324 l-0.005586 -21.719 c0 -0.6108 -0.5284 -1.144 -1.2684 -1.144 l-0.72558 0 c-0.3516 0 -0.6056 -0.25398 -0.6056 -0.5768 c0 -0.3516 0.25398 -0.6052 0.6056 -0.6052 l11.684 0 c6.3572 0 9.7944 2.3944 9.7944 6.6344 c0 3.4896 -2.7308 5.968 -7.348 6.8032 c9.7408 1.74 4.9984 11.725 8.6936 11.725 c1.0304 0 1.3144 -0.6636 1.866 -0.6636 z M57.6256 26.639 l2.4164 0 c4.302 0 5.4828 -3.2056 5.4828 -6.1916 c0 -3.0648 -1.6152 -5.626 -5.8964 -5.626 l-0.73398 0 c-0.7344 0 -1.2688 0.5332 -1.2688 1.1324 l0 10.685 z M96.203 32.3008 l0.005586 -0.0003125 c0.32281 0 0.5764 0.25398 0.5764 0.6056 l0 7.094 l-20.214 0 c-0.3516 0 -0.6052 -0.25359 -0.6052 -0.6052 c0 -0.32281 0.25359 -0.5764 0.6052 -0.5764 l0.72558 0 c0.7344 0 1.2688 -0.5332 1.2688 -1.1324 l-0.005586 -21.719 c0 -0.6052 -0.5284 -1.1444 -1.2684 -1.1444 l-0.72558 0 c-0.3516 0 -0.6056 -0.25398 -0.6056 -0.5768 c0 -0.3516 0.25398 -0.6052 0.6056 -0.6052 l20.164 0 l0 7.094 c0 0.3516 -0.25359 0.6056 -0.6052 0.6056 c-0.32281 0 -0.5764 -0.25398 -0.5764 -0.6056 l0 -0.66762 c0 -2.76 -1.64 -5.244 -4.92 -5.244 l-5.174 0 c-0.7344 0 -1.2688 0.5244 -1.2688 1.1324 l0 9.7088 l1.4152 0 c3.0124 0 4.0772 -1.0732 4.0772 -3.5712 l0 -0.17922 c0 -0.32281 0.28281 -0.60564 0.60564 -0.60564 s0.60564 0.28281 0.60564 0.60564 l0 8.7408 c0 0.32281 -0.28281 0.60564 -0.60564 0.60564 s-0.60564 -0.25398 -0.60564 -0.69276 l0 -0.19039 c0 -2.342 -1.0068 -3.4732 -4.0772 -3.4732 l-1.4152 0 l0 10.77 c0 0.6108 0.5284 1.144 1.2684 1.144 l5.2236 0 c3.28 0 4.92 -2.484 4.92 -5.244 l0 -0.66762 c0 -0.3516 0.25359 -0.6056 0.6052 -0.6056 z M124.77 13.64 c0.3516 0 0.60552 0.25367 0.60552 0.57648 c0 0.3516 -0.25398 0.6056 -0.6056 0.6056 l-0.72558 0 c-0.7808 0 -1.2744 0.6028 -1.2744 1.2456 l0 23.932 l-2.742 0 l-15.174 -20.574 l0 18.147 c0 0.6428 0.494 1.2456 1.2748 1.2456 l0.72558 0 c0.3516 0 0.6056 0.25359 0.6056 0.6052 c0 0.32281 -0.25398 0.5764 -0.6056 0.5764 l-5.414 0 c-0.3516 0 -0.6056 -0.25359 -0.6056 -0.5764 c0 -0.3516 0.25398 -0.6052 0.6056 -0.6052 l0.72558 0 c0.7808 0 1.2748 -0.6028 1.2748 -1.2456 l0 -21.505 c0 -0.6428 -0.494 -1.2456 -1.2748 -1.2456 l-0.72558 0 c-0.3516 0 -0.6056 -0.25398 -0.6056 -0.6056 c0 -0.32281 0.25398 -0.5764 0.6056 -0.5764 l5.6648 0 l14.251 19.254 l0 -16.826 c0 -0.6428 -0.4936 -1.2456 -1.2744 -1.2456 l-0.72558 0 c-0.3516 0 -0.6052 -0.25398 -0.6052 -0.6056 c0 -0.32281 0.25359 -0.5764 0.6052 -0.5764 l5.4136 0 z M147.523 32.3008 l0.005586 -0.0003125 c0.32281 0 0.5764 0.25398 0.5764 0.6056 l0 7.094 l-20.214 0 c-0.3516 0 -0.6052 -0.25359 -0.6052 -0.6052 c0 -0.32281 0.25359 -0.5764 0.6052 -0.5764 l0.72558 0 c0.7344 0 1.2688 -0.5332 1.2688 -1.1324 l-0.005586 -21.719 c0 -0.6052 -0.5284 -1.1444 -1.2684 -1.1444 l-0.72558 0 c-0.3516 0 -0.6056 -0.25398 -0.6056 -0.5768 c0 -0.3516 0.25398 -0.6052 0.6056 -0.6052 l20.164 0 l0 7.094 c0 0.3516 -0.25359 0.6056 -0.6052 0.6056 c-0.32281 0 -0.5764 -0.25398 -0.5764 -0.6056 l0 -0.66762 c0 -2.76 -1.64 -5.244 -4.92 -5.244 l-5.174 0 c-0.7344 0 -1.2688 0.5244 -1.2688 1.1324 l0 9.7088 l1.4152 0 c3.0124 0 4.0772 -1.0732 4.0772 -3.5712 l0 -0.17922 c0 -0.32281 0.28281 -0.60564 0.60564 -0.60564 s0.60564 0.28281 0.60564 0.60564 l0 8.7408 c0 0.32281 -0.28281 0.60564 -0.60564 0.60564 s-0.60564 -0.25398 -0.60564 -0.69276 l0 -0.19039 c0 -2.342 -1.0068 -3.4732 -4.0772 -3.4732 l-1.4152 0 l0 10.77 c0 0.6108 0.5284 1.144 1.2684 1.144 l5.2236 0 c3.28 0 4.92 -2.484 4.92 -5.244 l0 -0.66762 c0 -0.3516 0.25359 -0.6056 0.6052 -0.6056 z"></path></g><g id="SvgjsG1959" featureKey="sloganFeature-0" transform="matrix(0.5829946098181092,0,0,0.5829946098181092,130.41715151051164,62.15498734934316)" fill="#b83b5e"><path d="M5.08 4.9 c-0.38 0.02 -0.76 0.08 -1.14 0.2 c-0.82 0.28 -1.56 0.84 -2.06 1.56 c-0.44 0.66 -0.62 1.44 -0.68 2.22 c-0.04 0.6 0.02 1.22 0.3 1.76 c0.3 0.58 0.82 1.08 1.26 1.56 c0.4 0.42 0.8 0.84 1.24 1.22 c0.4 0.38 0.86 0.68 1.26 1.08 c0.58 0.58 0.8 1.9 0.38 2.62 c-0.5 0.8 -1.68 0.92 -2.46 0.66 c-0.4 -0.14 -0.76 -0.44 -1.1 -0.68 c-0.2 -0.14 -0.44 -0.2 -0.58 0.04 c-0.08 0.12 -0.12 0.26 -0.16 0.38 c-0.14 0.5 -0.32 0.96 -0.34 1.5 c-0.02 0.62 1.16 0.8 1.6 0.9 c1.96 0.46 4.32 0.1 5.34 -1.84 c0.2 -0.4 0.34 -0.82 0.42 -1.26 c0.02 -0.16 0.04 -0.3 0.04 -0.46 c0.08 -1.28 -0.44 -2.36 -1.22 -3.32 c-0.84 -1.04 -1.9 -1.76 -2.88 -2.66 c-0.6 -0.56 -0.82 -1.44 -0.64 -2.24 c0.18 -0.86 1.16 -1.08 1.9 -0.86 c0.22 0.06 0.4 0.16 0.6 0.28 c0.12 0.06 0.24 0.14 0.4 0.14 c0.28 0.02 0.32 -0.2 0.38 -0.42 c0.14 -0.5 0.38 -0.9 0.48 -1.38 c0.1 -0.54 -0.34 -0.64 -0.78 -0.78 c-0.52 -0.14 -1.02 -0.24 -1.56 -0.22 z M42.62 17.82 c0.02 0.62 0.02 1.24 0.04 1.86 c0 0.28 0.02 0.32 0.3 0.32 l1.8 0 c0.38 0 0.3 -0.64 0.28 -0.98 l0.06 -11.2 c0 -0.3 0.1 -0.4 0.5 -0.4 l1.76 0 c0.42 0 0.32 -0.72 0.32 -1.22 c0 -0.44 0.16 -1.2 -0.32 -1.2 c-0.34 0 -3.6 0 -4.94 0.02 c-0.66 0 -1.2 -0.02 -1.86 -0.02 c-0.5 0 -0.48 0.4 -0.48 1.28 c0 0.56 -0.02 1.12 0.46 1.12 c0.28 0 1.42 0 1.74 0.02 c0.2 0 0.34 0.06 0.38 0.28 c0 0.06 0.02 0.12 0.02 0.18 c0 1.44 -0.1 8.14 -0.06 9.94 z M79.38 8.28 c0 2.02 0.02 4.06 0.06 6.06 c0.02 1.22 0 2.6 0.58 3.72 c0.74 1.44 2.38 2.08 3.96 1.98 c1.08 -0.08 2.08 -0.36 2.86 -1.16 c1.32 -1.42 1.06 -3.64 1.08 -5.46 c0.04 -2.62 0.1 -5.06 0.1 -7.7 c0 -0.44 -0.14 -0.68 -0.58 -0.7 c-0.54 -0.02 -1.08 0 -1.62 0.04 c-0.22 0 -0.4 0.2 -0.4 0.44 c0.02 1.92 0.06 3.86 0.04 5.8 c-0.02 1.66 0.2 3.5 -0.42 5.08 c-0.24 0.58 -0.78 1.02 -1.42 1.02 c-1.6 -0.04 -1.54 -1.94 -1.6 -3.06 c-0.12 -2.44 0.06 -4.94 0.12 -7.38 c0 -0.46 0 -0.92 0.02 -1.38 c0.02 -0.24 0.06 -0.54 -0.26 -0.56 l-0.36 0 c-0.5 0.04 -1 -0.02 -1.5 0 c-0.48 0.04 -0.64 0.18 -0.64 0.66 c0 0.86 -0.02 1.74 -0.02 2.6 z M128.11999999999998 16.32 c0.12 -0.26 0.22 -0.52 0.32 -0.78 c0.22 -0.64 0.26 -1.3 0.32 -1.96 c0.12 -1.4 0.08 -2.82 -0.28 -4.18 c-0.44 -1.74 -1.56 -3.34 -3.24 -4.08 c-0.76 -0.34 -1.62 -0.38 -2.44 -0.36 c-0.86 0 -1.74 -0.04 -2.6 0.04 c-0.24 0.02 -0.36 0.14 -0.4 0.36 c-0.04 0.24 -0.08 0.48 -0.08 0.7 c0.04 1.22 0 4.84 0.04 5.44 c0.02 0.54 -0.04 1.2 -0.04 1.74 c0.02 1.34 0 2.7 0 4.04 c0 0.56 -0.02 1.1 -0.02 1.66 c0 0.6 -0.22 0.86 1.42 0.86 c1.46 0 2.98 -0.12 4.36 -0.64 c1.28 -0.46 2.08 -1.64 2.64 -2.84 z M122.29999999999998 14.24 l0 -2.4 c0 -1.52 0.04 -2.5 -0.02 -3.78 l0 -0.24 c0.02 -0.42 0.08 -0.44 0.52 -0.44 c0.58 -0.02 1 0.12 1.5 0.32 s0.78 0.64 1.04 1.06 c0.5 0.82 0.7 1.72 0.74 2.66 c0.02 0.54 0.04 1.08 0.04 1.62 c0 2.56 -1.5 4.34 -2.82 4.34 c-0.88 0 -1.02 0.06 -1.02 -0.52 c0 -0.6 0.04 -1.2 0.04 -1.8 c-0.02 -0.26 -0.02 -0.54 -0.02 -0.82 z M160.52 15.9 l-0.02 0 c0 0.5 -0.02 1.02 0 1.54 c0.02 0.64 0.06 1.28 0.1 1.92 c0 0.22 0.06 0.28 0.26 0.32 c0.42 0.1 0.82 0.12 1.24 0.12 c1.08 -0.04 2.16 0.04 3.24 0 c0.44 -0.02 0.64 0.02 1.08 -0.06 c0.4 -0.08 0.54 -0.3 0.54 -0.9 c-0.04 -0.38 -0.02 -0.54 -0.02 -1 c0 -0.66 -0.46 -0.88 -0.86 -0.86 c-0.28 0.02 -1.62 -0.02 -2.16 -0.02 c-0.9 0.02 -0.76 0.14 -0.76 -0.8 c0 -0.76 0.02 -1.74 0.02 -2.52 c0 -0.42 0.04 -0.56 0.44 -0.56 l2.5 0 c0.4 0.06 0.68 -0.22 0.68 -0.64 s0.04 -0.44 0.04 -0.86 l-0.06 -0.6 c-0.04 -0.34 -0.16 -0.46 -0.5 -0.46 c-0.22 0 -0.44 0.02 -0.66 0.04 c-0.86 0.06 -1.26 -0.06 -2.1 0 c-0.28 0 -0.32 -0.04 -0.34 -0.3 c-0.08 -0.78 0 -1.64 0.08 -2.42 c0.02 -0.32 0.1 -0.38 0.4 -0.4 l2.82 -0.02 c0.38 -0.04 0.5 -0.02 0.48 -0.4 c-0.04 -0.58 0.02 -1.18 -0.04 -1.76 c-0.04 -0.32 -0.14 -0.38 -0.5 -0.38 c-0.6 0.02 -0.74 0.02 -1.34 0.06 c-0.6 0.02 -3 0.02 -3.58 0.02 c-0.84 0 -0.9 -0.06 -0.92 0.96 c-0.04 0.8 -0.02 1.62 -0.02 2.44 c0 1.4 -0.08 6.42 -0.04 7.54 z M207.16 5.460000000000001 c0.06 0.28 0.02 13.6 0.02 13.94 c0 0.6 -0.22 0.58 -0.62 0.58 c-0.6 0 -1.44 0.1 -1.62 -0.1 c-0.16 -0.14 -3.12 -7.28 -3.54 -8.18 c-0.04 -0.08 -0.14 -0.28 -0.22 -0.24 c-0.1 0.04 -0.06 0.18 -0.06 0.26 c-0.02 0.7 0.1 6.74 0.1 7.7 c0 0.48 -0.02 0.56 -0.42 0.56 l-1 0 c-0.26 0 -0.58 -0.02 -0.84 0.02 c-0.2 0 -0.3 -0.06 -0.32 -0.26 l0 -1.58 c0.04 -1.68 0 -11.64 0 -12.38 c0 -0.64 0.18 -0.76 0.82 -0.76 c0.44 -0.02 0.88 -0.02 1.32 -0.02 c0.14 0 0.22 0.02 0.3 0.2 c0.54 1.26 2.84 7.04 3.2 7.74 c0.06 0.14 0.28 0.7 0.4 0.76 l0.02 0 c0.08 -0.08 0.06 -0.48 0.06 -0.6 c0 -0.3 -0.16 -7.32 -0.16 -7.46 c0 -0.2 -0.06 -0.38 0.04 -0.52 c0.06 -0.08 0.32 -0.1 0.42 -0.12 c0.56 -0.04 1.22 0.02 1.78 0 c0.28 0 0.26 0.2 0.32 0.46 z M241.43999999999997 17.82 c0.02 0.62 0.02 1.24 0.04 1.86 c0 0.28 0.02 0.32 0.3 0.32 l1.8 0 c0.38 0 0.3 -0.64 0.28 -0.98 l0.06 -11.2 c0 -0.3 0.1 -0.4 0.5 -0.4 l1.76 0 c0.42 0 0.32 -0.72 0.32 -1.22 c0 -0.44 0.16 -1.2 -0.32 -1.2 c-0.34 0 -3.6 0 -4.94 0.02 c-0.66 0 -1.2 -0.02 -1.86 -0.02 c-0.5 0 -0.48 0.4 -0.48 1.28 c0 0.56 -0.02 1.12 0.46 1.12 c0.28 0 1.42 0 1.74 0.02 c0.2 0 0.34 0.06 0.38 0.28 c0 0.06 0.02 0.12 0.02 0.18 c0 1.44 -0.1 8.14 -0.06 9.94 z M316.96 4.9 c-0.38 0.02 -0.76 0.08 -1.14 0.2 c-0.82 0.28 -1.56 0.84 -2.06 1.56 c-0.44 0.66 -0.62 1.44 -0.68 2.22 c-0.04 0.6 0.02 1.22 0.3 1.76 c0.3 0.58 0.82 1.08 1.26 1.56 c0.4 0.42 0.8 0.84 1.24 1.22 c0.4 0.38 0.86 0.68 1.26 1.08 c0.58 0.58 0.8 1.9 0.38 2.62 c-0.5 0.8 -1.68 0.92 -2.46 0.66 c-0.4 -0.14 -0.76 -0.44 -1.1 -0.68 c-0.2 -0.14 -0.44 -0.2 -0.58 0.04 c-0.08 0.12 -0.12 0.26 -0.16 0.38 c-0.14 0.5 -0.32 0.96 -0.34 1.5 c-0.02 0.62 1.16 0.8 1.6 0.9 c1.96 0.46 4.32 0.1 5.34 -1.84 c0.2 -0.4 0.34 -0.82 0.42 -1.26 c0.02 -0.16 0.04 -0.3 0.04 -0.46 c0.08 -1.28 -0.44 -2.36 -1.22 -3.32 c-0.84 -1.04 -1.9 -1.76 -2.88 -2.66 c-0.6 -0.56 -0.82 -1.44 -0.64 -2.24 c0.18 -0.86 1.16 -1.08 1.9 -0.86 c0.22 0.06 0.4 0.16 0.6 0.28 c0.12 0.06 0.24 0.14 0.4 0.14 c0.28 0.02 0.32 -0.2 0.38 -0.42 c0.14 -0.5 0.38 -0.9 0.48 -1.38 c0.1 -0.54 -0.34 -0.64 -0.78 -0.78 c-0.52 -0.14 -1.02 -0.24 -1.56 -0.22 z M354.44 18.74 c0 -0.62 -0.48 -1.18 -1.12 -1.24 c-1.36 -0.14 -1.9 1.86 -0.66 2.4 c0.5 0.22 1.12 0.08 1.46 -0.32 c0.22 -0.24 0.32 -0.54 0.32 -0.84 z M389.02 5.02 c-0.2 0 -0.4 0.02 -0.6 0.02 c-0.3 0 -0.66 -0.06 -0.72 0.34 c-0.2 1.7 -0.38 3.58 -0.58 5.28 c-0.34 2.8 -0.66 5.68 -0.98 8.48 c-0.04 0.38 -0.08 0.74 0.34 0.82 c0.64 0.04 1.12 0.04 1.66 0.02 c0.2 0.02 0.42 0.04 0.48 -0.2 c0.04 -0.1 0.04 -0.2 0.04 -0.3 c0.04 -0.46 0.64 -6.22 0.88 -6.22 c0.38 0 1.38 4.68 1.86 6.4 c0.06 0.24 0.18 0.34 0.42 0.32 c0.5 -0.04 0.98 0 1.48 0 s0.4 -0.32 0.5 -0.74 c0.12 -0.46 1.28 -6 1.56 -6 c0.32 0 0.98 6.42 1.04 6.56 c0.12 0.28 0.46 0.16 0.7 0.16 c0.36 0 0.7 0.04 1.16 0 c0.34 -0.04 0.68 0.08 0.7 -0.36 c0 -0.1 -0.04 -0.2 -0.06 -0.3 c-0.08 -0.5 -0.18 -1.1 -0.28 -1.6 c-0.14 -1.04 -0.34 -2.06 -0.48 -3.1 c-0.2 -1.64 -0.4 -3.28 -0.58 -4.92 c-0.14 -1.4 -0.34 -2.98 -0.46 -4.38 c-0.04 -0.46 -0.56 -0.3 -0.88 -0.3 l-1.38 0 c-0.22 0 -0.32 0.42 -0.36 0.64 c-0.12 0.56 -1.5 7.78 -1.96 7.78 s-1.94 -6.6 -2.2 -8.04 c-0.06 -0.32 -0.28 -0.42 -0.58 -0.42 z"></path></g>
			</g>
		</svg>
	